<svg width="70" height="79" viewBox="0 0 70 79" fill="none" xmlns="http://www.w3.org/2000/svg">
<g clip-path="url(#clip0)">
<path d="M69.9964 23.5003C69.9959 22.1718 69.7129 20.9981 69.1409 19.9908C68.5789 19 67.737 18.17 66.6083 17.5133C57.2893 12.1177 47.9612 6.73858 38.6455 1.3375C36.1339 -0.118238 33.6987 -0.0652971 31.2058 1.41156C27.4966 3.6082 8.92582 14.2919 3.39199 17.5103C1.11316 18.8352 0.00410156 20.8626 0.00355469 23.4978C0 34.3488 0.00355469 45.1992 0 56.0505C0.000546875 57.3496 0.271523 58.5006 0.818398 59.493C1.38059 60.5134 2.23398 61.3665 3.38898 62.038C8.92309 65.2565 27.4963 75.9393 31.2047 78.1365C33.6987 79.6142 36.1339 79.6668 38.6463 78.2105C47.9623 72.8092 57.2909 67.4303 66.6113 62.0347C67.7663 61.3635 68.6197 60.5099 69.1819 59.4903C69.7279 58.4978 69.9995 57.3469 70 56.0475C70 56.0475 70 34.3515 69.9964 23.5003Z" fill="#A9B9CB"/>
<path d="M38.5823 1.40835C36.0749 -0.0438269 33.6437 0.00911412 31.1549 1.48213C27.4518 3.67301 8.91133 14.329 3.38652 17.5392C1.11125 18.8605 0.00410156 20.8827 0.00355469 23.5111C0 34.3338 0.00355469 45.1562 0 55.9792C0.000546875 57.2751 0.270977 58.423 0.817031 59.4127C1.3784 60.4307 2.23043 61.2816 3.38352 61.9511C5.21956 63.016 7.05697 64.0785 8.89574 65.1386L60.0537 13.8182C52.8957 9.68332 45.7357 5.55173 38.5823 1.40835Z" fill="#7F8B99"/>
<path d="M42.2341 34.8281L53.1276 34.9051C53.1276 30.3519 48.5333 19.2014 35.3615 19.2014C26.9694 19.2014 15.6874 24.5537 15.6874 39.9417C15.6874 55.3294 26.7471 60.3472 35.3615 60.3472C49.3115 60.3472 52.6455 50.6637 52.6455 45.1913L42.253 44.5953C42.253 44.5953 42.531 50.9249 35.306 50.9249C28.6369 50.9249 27.524 42.7292 27.524 39.9417C27.524 35.7045 29.026 28.9025 35.306 28.9025C41.5863 28.9025 42.2341 34.8281 42.2341 34.8281Z" fill="white"/>
</g>
<defs>
<clipPath id="clip0">
<rect width="70" height="79" fill="white"/>
</clipPath>
</defs>
</svg>
