<svg width="70" height="79" viewBox="0 0 70 79" fill="none" xmlns="http://www.w3.org/2000/svg">
<path d="M35 78.8538C33.9131 78.8538 32.8986 78.5641 31.9566 78.057L22.3188 72.334C20.8696 71.5372 21.5942 71.2474 22.0289 71.1025C23.9854 70.4506 24.3477 70.3057 26.3766 69.1464C26.5943 69.0015 26.8841 69.074 27.1012 69.2188L34.4928 73.6379C34.7826 73.7828 35.1449 73.7828 35.3623 73.6379L64.2756 56.9039C64.5654 56.759 64.7104 56.4692 64.7104 56.107V22.7108C64.7104 22.3486 64.5654 22.0588 64.2756 21.914L35.3623 5.25208C35.0725 5.1072 34.7102 5.1072 34.4928 5.25208L5.57949 21.9142C5.28965 22.0591 5.14473 22.4213 5.14473 22.7111V56.107C5.14473 56.3968 5.28965 56.759 5.57949 56.9039L13.4783 61.4675C17.7537 63.6407 20.4345 61.1054 20.4345 58.57V25.6084C20.4345 25.1737 20.7971 24.7391 21.3043 24.7391H25.0001C25.4349 24.7391 25.8696 25.1013 25.8696 25.6084V58.5697C25.8696 64.2927 22.7536 67.6249 17.3187 67.6249C15.6521 67.6249 14.3478 67.6249 10.6523 65.8139L3.04336 61.4675C1.15938 60.3807 0 58.3524 0 56.1792V22.7835C0 20.6103 1.15938 18.582 3.04336 17.4952L31.9566 0.761102C33.7682 -0.25305 36.2318 -0.25305 38.0434 0.761102L66.9566 17.4952C68.8406 18.5818 70 20.6101 70 22.7835V56.1795C70 58.3526 68.8406 60.381 66.9566 61.4675L38.0434 78.2022C37.1014 78.6368 36.0145 78.8541 35 78.8541V78.8538ZM43.913 55.8894C31.2318 55.8894 28.6232 50.0943 28.6232 45.1681C28.6232 44.7335 28.9855 44.2989 29.4927 44.2989H33.2607C33.6954 44.2989 34.058 44.5886 34.058 45.0232C34.6377 48.8625 36.3043 50.7462 43.9854 50.7462C50.0724 50.7462 52.6813 49.3699 52.6813 46.1101C52.6813 44.2264 51.9567 42.8501 42.4638 41.9081C34.5652 41.1112 29.6376 39.3727 29.6376 33.0705C29.6376 27.2023 34.565 23.7252 42.8261 23.7252C52.1013 23.7252 56.6666 26.9126 57.2463 33.867C57.2463 34.0843 57.1739 34.3017 57.0289 34.519C56.884 34.6639 56.6666 34.8087 56.4493 34.8087H52.6813C52.3187 34.8087 51.9567 34.519 51.8839 34.1568C51.0144 30.1726 48.7681 28.8687 42.8261 28.8687C36.1596 28.8687 35.3623 31.1868 35.3623 32.9253C35.3623 35.0263 36.3043 35.678 45.2897 36.837C54.203 37.9961 58.4057 39.6625 58.4057 45.8925C58.3332 52.2675 53.1161 55.8894 43.913 55.8894Z" fill="#539E43"/>
</svg>
