<svg width="79" height="79" viewBox="0 0 79 79" fill="none" xmlns="http://www.w3.org/2000/svg">
<path d="M64.9537 25.5795C64.113 25.2556 63.2651 24.9556 62.4109 24.6797C62.5544 24.0213 62.6865 23.371 62.8038 22.732C64.7288 12.2399 63.4703 3.78727 59.1719 1.00425C55.0507 -1.66373 48.3107 1.11825 41.5037 7.76984C40.8328 8.42656 40.1769 9.1022 39.5364 9.79612C39.1077 9.33469 38.6713 8.88221 38.2277 8.43892C31.0936 1.32684 23.9429 -1.67066 19.6491 1.12033C15.5315 3.79663 14.3123 11.7427 16.0453 21.6863C16.2178 22.6711 16.4124 23.6509 16.6292 24.6246C15.617 24.9475 14.6403 25.2912 13.7056 25.6571C5.34145 28.9314 0 34.0626 0 39.3851C0 44.8822 5.73429 50.3959 14.4459 53.7392C15.1522 54.0091 15.8643 54.2592 16.5817 54.4893C16.3487 55.5381 16.1418 56.5939 15.9614 57.6556C14.3092 67.4266 15.5994 75.1849 19.7059 77.8442C23.9472 80.5905 31.0658 77.768 37.9971 70.9647C38.5592 70.4115 39.1089 69.8428 39.6457 69.2589C40.3392 70.0103 41.0513 70.7398 41.7811 71.4466C48.4955 77.9336 55.1266 80.5531 59.229 77.8865C63.4663 75.1322 64.8436 66.7978 63.0556 56.6577C62.9147 55.8633 62.7568 55.0728 62.5819 54.287C63.0818 54.1207 63.5725 53.9495 64.0508 53.7714C73.1074 50.4025 79 44.9556 79 39.3851C79 34.0432 73.486 28.8774 64.9537 25.5795ZM62.9895 50.1748C62.5575 50.3353 62.1144 50.4901 61.6626 50.6409C60.6627 47.0869 59.3136 43.3081 57.6623 39.4035C59.238 35.592 60.5353 31.8614 61.5071 28.3306C62.3153 28.5933 63.0994 28.8701 63.8555 29.1622C71.166 31.9882 75.6252 36.1658 75.6252 39.3851C75.6252 42.814 70.8093 47.2653 62.9895 50.1748ZM59.745 57.3936C60.5356 61.8772 60.6482 65.9312 60.1246 69.1005C59.6543 71.9483 58.7081 73.8468 57.5379 74.6073C55.0485 76.2254 49.7243 74.1222 43.9823 68.5742C43.3035 67.917 42.6411 67.2388 41.9959 66.5403C44.2221 63.8068 46.4468 60.6292 48.618 57.0998C52.4372 56.7194 56.0453 56.0971 59.3173 55.2478C59.4784 55.9779 59.6215 56.6937 59.745 57.3936ZM26.9328 74.3277C24.5005 75.292 22.5631 75.3197 21.392 74.5616C18.9001 72.948 17.8642 66.7184 19.2772 58.3624C19.4452 57.375 19.6375 56.393 19.854 55.4176C23.0899 56.2214 26.6718 56.7994 30.4999 57.148C32.6859 60.6014 34.9748 63.7756 37.2815 66.5552C36.7913 67.0878 36.2895 67.6068 35.7765 68.1116C32.7112 71.1199 29.6398 73.2543 26.9328 74.3277ZM15.5377 50.1537C11.6855 48.6752 8.50423 46.7539 6.3237 44.6573C4.36413 42.7734 3.37509 40.9027 3.37509 39.3851C3.37509 36.1551 7.66362 32.0353 14.8165 29.2353C15.6846 28.8958 16.5931 28.5753 17.5358 28.2745C18.5246 31.8849 19.8213 35.66 21.3862 39.4773C19.8009 43.351 18.4857 47.1863 17.4874 50.8394C16.8326 50.6288 16.1825 50.4002 15.5377 50.1537ZM19.3575 20.9583C17.8728 12.4392 18.8588 6.01279 21.3402 4.39987C23.983 2.68196 29.8271 5.13131 35.987 11.2725C36.3886 11.6739 36.7838 12.0834 37.1723 12.5008C34.877 15.2683 32.6091 18.4189 30.4425 21.8519C26.727 22.2386 23.1705 22.8595 19.9006 23.6915C19.6991 22.7858 19.518 21.8746 19.3575 20.9587V20.9583ZM53.4346 30.4065C52.6622 28.9086 51.8612 27.4295 51.0321 25.9703C53.5527 26.3283 55.9678 26.8033 58.2357 27.384C57.5549 29.8344 56.7063 32.396 55.7073 35.0224C54.9772 33.4669 54.2194 31.928 53.4346 30.4065ZM39.538 15.209C41.0945 17.1026 42.6535 19.2165 44.1869 21.5103C41.0763 21.3454 37.9605 21.3447 34.8498 21.5082C36.3847 19.2356 37.957 17.1244 39.538 15.209ZM25.5522 30.4324C24.7771 31.9417 24.0335 33.4711 23.322 35.0193C22.3394 32.4023 21.4985 29.8289 20.8119 27.3438C23.0658 26.7777 25.4695 26.3147 27.974 25.9634C27.1357 27.4315 26.3282 28.9215 25.5522 30.4321V30.4324ZM28.0459 53.0764C25.4584 52.752 23.0186 52.313 20.7653 51.7621C21.4627 49.2327 22.3221 46.6046 23.326 43.9314C24.0403 45.4808 24.787 47.0111 25.5654 48.521C26.3659 50.0733 27.1948 51.5937 28.0459 53.0764ZM39.6312 63.828C38.0314 61.8904 36.436 59.7467 34.8779 57.4411C36.3906 57.5076 37.9327 57.5416 39.5 57.5416C41.1102 57.5416 42.702 57.501 44.2687 57.4227C42.7304 59.7699 41.1772 61.9167 39.6312 63.828ZM55.7391 43.7949C56.7951 46.4975 57.6851 49.1118 58.3918 51.5979C56.1014 52.1848 53.6283 52.6574 51.0226 53.0084C51.8576 51.5222 52.6661 50.0174 53.4478 48.495C54.2426 46.9476 55.0065 45.3805 55.7391 43.7949ZM50.5245 46.6018C49.3278 48.9359 48.0639 51.2257 46.7347 53.4675C44.3269 53.659 41.9138 53.7541 39.5 53.7527C37.0414 53.7527 34.6501 53.6668 32.3474 53.4991C30.9835 51.2624 29.6954 48.9686 28.486 46.6226H28.4863C27.2825 44.289 26.1581 41.9049 25.1155 39.4755C26.1555 37.0455 27.2765 34.6603 28.4761 32.325L28.4758 32.3253C29.675 29.9894 30.9528 27.7054 32.3064 25.4783C34.6557 25.2787 37.0649 25.1748 39.4997 25.1748H39.5C41.9459 25.1748 44.3582 25.2798 46.7069 25.4807C48.0468 27.7045 49.3165 29.9806 50.5134 32.3049C51.717 34.6351 52.8529 37.0087 53.919 39.4218C52.8638 41.8596 51.7316 44.2545 50.5245 46.6018ZM57.4864 4.28691C60.1317 5.99996 61.1605 12.908 59.4984 21.967C59.3923 22.5449 59.2731 23.1336 59.1435 23.7306C55.8657 22.881 52.3066 22.2494 48.5804 21.8568C46.4097 18.386 44.1604 15.2305 41.9024 12.4988C42.4942 11.8583 43.1 11.2344 43.7194 10.6277C49.5518 4.92896 55.0028 2.67885 57.4864 4.28691ZM39.5 31.4643C43.396 31.4643 46.5545 35.0106 46.5545 39.3851C46.5545 43.7595 43.396 47.3059 39.5 47.3059C35.604 47.3059 32.4455 43.7595 32.4455 39.3851C32.4455 35.0106 35.604 31.4643 39.5 31.4643Z" fill="#00D8FF"/>
</svg>
