<svg width="79" height="79" viewBox="0 0 79 79" fill="none" xmlns="http://www.w3.org/2000/svg">
<path d="M39.1655 0.0223389C19.1587 0.0223389 20.4079 8.73248 20.4079 8.73248L20.4301 17.7564H39.5222V20.4657H12.8471C12.8471 20.4657 0.0447311 19.0081 0.0447311 39.2739C0.0447311 59.5403 11.2189 58.8216 11.2189 58.8216H17.8876V49.4172C17.8876 49.4172 17.5281 38.1992 28.8834 38.1992H47.8194C47.8194 38.1992 58.4581 38.3717 58.4581 27.8768V10.5241C58.4581 10.5241 60.0739 0.0223389 39.1655 0.0223389ZM28.6381 6.09078C29.0893 6.09037 29.5361 6.17928 29.953 6.35242C30.3699 6.52556 30.7487 6.77953 31.0677 7.0998C31.3867 7.42007 31.6397 7.80035 31.8121 8.21888C31.9846 8.63741 32.0732 9.08597 32.0728 9.5389C32.0732 9.99182 31.9846 10.4404 31.8121 10.8589C31.6397 11.2774 31.3867 11.6577 31.0677 11.978C30.7487 12.2983 30.3699 12.5522 29.953 12.7254C29.5361 12.8985 29.0893 12.9874 28.6381 12.987C28.1869 12.9874 27.7401 12.8985 27.3232 12.7254C26.9063 12.5522 26.5276 12.2983 26.2085 11.978C25.8895 11.6577 25.6365 11.2774 25.4641 10.8589C25.2916 10.4404 25.203 9.99182 25.2035 9.5389C25.203 9.08597 25.2916 8.63741 25.4641 8.21888C25.6365 7.80035 25.8895 7.42007 26.2085 7.0998C26.5276 6.77953 26.9063 6.52556 27.3232 6.35242C27.7401 6.17928 28.1869 6.09037 28.6381 6.09078Z" fill="url(#paint0_linear)"/>
<path d="M39.7336 78.7293C59.7404 78.7293 58.4912 70.0191 58.4912 70.0191L58.469 60.9955H39.3766V58.2862H66.0517C66.0517 58.2862 78.8541 59.7439 78.8541 39.4774C78.8541 19.2113 67.6799 19.93 67.6799 19.93H61.0112V29.3341C61.0112 29.3341 61.3707 40.5521 50.0154 40.5521H31.0794C31.0794 40.5521 20.4407 40.3796 20.4407 50.8748V68.2278C20.4407 68.2278 18.8252 78.7293 39.7333 78.7293H39.7336ZM50.261 72.6614C49.8098 72.6619 49.363 72.5729 48.9461 72.3998C48.5292 72.2267 48.1505 71.9727 47.8314 71.6524C47.5124 71.3322 47.2594 70.9519 47.087 70.5333C46.9145 70.1148 46.8259 69.6663 46.8264 69.2133C46.8259 68.7604 46.9144 68.3118 47.0869 67.8932C47.2593 67.4746 47.5123 67.0943 47.8313 66.774C48.1504 66.4537 48.5292 66.1997 48.9461 66.0266C49.363 65.8534 49.8098 65.7645 50.261 65.7649C50.7122 65.7645 51.159 65.8534 51.5759 66.0265C51.9928 66.1997 52.3716 66.4537 52.6906 66.7739C53.0096 67.0942 53.2626 67.4745 53.435 67.893C53.6075 68.3115 53.6961 68.7601 53.6957 69.213C53.6961 69.6659 53.6075 70.1145 53.435 70.533C53.2626 70.9516 53.0096 71.3318 52.6906 71.6521C52.3716 71.9724 51.9928 72.2264 51.5759 72.3995C51.159 72.5726 50.7122 72.6615 50.261 72.6611V72.6614Z" fill="url(#paint1_linear)"/>
<defs>
<linearGradient id="paint0_linear" x1="7.61828" y1="7.10156" x2="46.8251" y2="45.7656" gradientUnits="userSpaceOnUse">
<stop stop-color="#387EB8"/>
<stop offset="1" stop-color="#366994"/>
</linearGradient>
<linearGradient id="paint1_linear" x1="31.5906" y1="32.0278" x2="73.6866" y2="71.6671" gradientUnits="userSpaceOnUse">
<stop stop-color="#FFE052"/>
<stop offset="1" stop-color="#FFC331"/>
</linearGradient>
</defs>
</svg>
