<svg width="36" height="78" viewBox="0 0 36 78" fill="none" xmlns="http://www.w3.org/2000/svg">
<path fill-rule="evenodd" clip-rule="evenodd" d="M19.5119 77.0071L17.4062 76.3075C17.4062 76.3075 17.6633 65.8719 13.8103 65.1231C11.2425 62.2266 14.2222 -57.7127 23.468 64.7232C23.468 64.7232 20.2829 66.2707 19.7179 68.9178C19.1011 71.5145 19.5119 77.0071 19.5119 77.0071Z" fill="white"/>
<path fill-rule="evenodd" clip-rule="evenodd" d="M19.5119 77.0071L17.4062 76.3075C17.4062 76.3075 17.6633 65.8719 13.8103 65.1231C11.2425 62.2266 14.2222 -57.7127 23.468 64.7232C23.468 64.7232 20.2829 66.2707 19.7179 68.9178C19.1011 71.5145 19.5119 77.0071 19.5119 77.0071Z" fill="#A6A385"/>
<path fill-rule="evenodd" clip-rule="evenodd" d="M20.6425 66.9206C20.6425 66.9206 39.084 55.1361 34.7683 30.6185C30.608 12.7931 20.7967 6.95093 19.7179 4.70376C18.5367 3.1059 17.4062 0.310059 17.4062 0.310059L18.1771 49.8928C18.1771 49.9432 16.5846 65.0727 20.643 66.9211" fill="white"/>
<path fill-rule="evenodd" clip-rule="evenodd" d="M20.6425 66.9206C20.6425 66.9206 39.084 55.1361 34.7683 30.6185C30.608 12.7931 20.7967 6.95093 19.7179 4.70376C18.5367 3.1059 17.4062 0.310059 17.4062 0.310059L18.1771 49.8928C18.1771 49.9432 16.5846 65.0727 20.643 66.9211" fill="#499D4A"/>
<path fill-rule="evenodd" clip-rule="evenodd" d="M16.3279 67.5694C16.3279 67.5694 -0.98359 56.0846 0.0439687 35.8622C1.01976 15.6393 13.2453 5.70263 15.6082 3.90511C17.1495 2.30725 17.2007 1.70772 17.3037 0.109863C18.3825 2.35703 18.1771 33.7152 18.3307 37.4098C18.7927 51.6406 17.5091 64.8736 16.3279 67.5694Z" fill="white"/>
<path fill-rule="evenodd" clip-rule="evenodd" d="M16.3279 67.5694C16.3279 67.5694 -0.98359 56.0846 0.0439687 35.8622C1.01976 15.6393 13.2453 5.70263 15.6082 3.90511C17.1495 2.30725 17.2007 1.70772 17.3037 0.109863C18.3825 2.35703 18.1771 33.7152 18.3307 37.4098C18.7927 51.6406 17.5091 64.8736 16.3279 67.5694Z" fill="#58AA50"/>
</svg>
