<svg width="56" height="79" viewBox="0 0 56 79" fill="none" xmlns="http://www.w3.org/2000/svg">
<path d="M27.9659 78.8004L5.17607 72.4712L0.0973511 15.4862H55.9027L50.8187 72.4625L27.9659 78.8004Z" fill="#264DE4"/>
<path d="M46.4662 68.8344L50.8106 20.1454H28V73.9558L46.4662 68.8344Z" fill="#2965F1"/>
<path d="M11.7401 41.2805L12.3661 48.2695H28V41.2805H11.7401Z" fill="#EBEBEB"/>
<path d="M10.4818 27.1346L11.1169 34.1236H28V27.1346H10.4818Z" fill="#EBEBEB"/>
<path d="M28 59.4316L27.9694 59.4397L20.1889 57.338L19.6914 51.764H12.6783L13.657 62.7378L27.9679 66.7119L28 66.7031V59.4316Z" fill="#EBEBEB"/>
<path d="M13.2309 0H21.6921V3.5399H16.7694V7.0798H21.6926V10.6195H13.2309V0Z" fill="black"/>
<path d="M23.3846 0H31.8461V3.07816H26.9231V3.69374H31.8461V10.7735H23.3848V7.54111H28.3078V6.92552H23.3844V0H23.3846Z" fill="black"/>
<path d="M33.5385 0H42V3.07816H37.077V3.69374H42V10.7735H33.5385V7.54111H38.4615V6.92552H33.5388V0H33.5385Z" fill="black"/>
<path d="M44.2153 41.2805L45.4764 27.1346H27.9759V34.1236H37.8201L37.1844 41.2805H27.9759V48.2694H36.5787L35.7676 57.3337L27.9757 59.4375V66.7086L42.2979 62.7378L42.4029 61.557L44.0449 43.1572L44.2153 41.2805Z" fill="white"/>
</svg>
