<svg width="85" height="85" viewBox="0 0 85 85" fill="none" xmlns="http://www.w3.org/2000/svg">
<path d="M20.1875 36.6324C21.0066 36.5294 21.8379 36.5898 22.6335 36.81C23.4291 37.0302 24.1731 37.4059 24.8227 37.9154C25.2418 38.5609 25.509 39.2931 25.6042 40.0569C25.6995 40.8206 25.6202 41.596 25.3725 42.3248C25.1552 44.1187 24.2876 45.7707 22.9341 46.9679C21.3018 48.0193 19.3722 48.5124 17.4356 48.373H13.7169L16.0013 36.6563L20.1875 36.6324ZM5.3125 60.2358H11.4219L12.8695 52.7983H18.0944C20.0192 52.8474 21.9402 52.5992 23.7894 52.0626C25.3081 51.5612 26.6963 50.7282 27.8534 49.6241C29.8547 47.8246 31.2034 45.4128 31.6891 42.7657C32.0724 41.4481 32.1399 40.0588 31.886 38.7103C31.6322 37.3618 31.0642 36.0921 30.2281 35.0041C29.2201 34.0052 28.0062 33.2383 26.6711 32.757C25.336 32.2758 23.912 32.0917 22.4984 32.2177H10.7764L5.3125 60.2358Z" fill="#8993BE"/>
<path d="M36.1701 24.7642H42.2343L40.7654 32.2017H46.1602C48.6388 31.9421 51.1289 32.572 53.186 33.9787C53.8667 34.7524 54.3319 35.6915 54.5352 36.7018C54.7385 37.7121 54.6726 38.758 54.3441 39.7348L51.8101 52.7743H45.6741L48.086 40.3776C48.2538 39.9046 48.3137 39.4001 48.2613 38.901C48.2089 38.4018 48.0456 37.9207 47.7832 37.4929C46.9039 36.862 45.8171 36.5903 44.7445 36.7332H39.9021L36.781 52.7876H30.7035L36.1701 24.7642Z" fill="#8993BE"/>
<path d="M67.8379 36.6323C68.6569 36.5293 69.4883 36.5897 70.2839 36.8099C71.0795 37.0301 71.8235 37.4058 72.4731 37.9153C72.8922 38.5609 73.1594 39.2931 73.2546 40.0568C73.3499 40.8206 73.2706 41.596 73.0229 42.3247C72.8056 44.1186 71.938 45.7706 70.5845 46.9678C68.9492 48.0215 67.0156 48.5147 65.0754 48.373H61.3593L63.6384 36.643L67.8379 36.6323ZM52.9629 60.2358H59.0723L60.5199 52.7983H65.7474C67.6759 52.8484 69.6004 52.6002 71.4531 52.0625C72.9718 51.5611 74.36 50.7282 75.5171 49.624C77.5134 47.8226 78.8574 45.411 79.3395 42.7656C79.7228 41.4481 79.7903 40.0587 79.5364 38.7103C79.2826 37.3618 78.7146 36.0921 77.8785 35.004C76.8701 34.0069 75.6563 33.2417 74.3217 32.7618C72.9872 32.2819 71.564 32.099 70.1515 32.2256H58.4109L52.9629 60.2358Z" fill="#8993BE"/>
</svg>
