<svg width="79" height="79" viewBox="0 0 79 79" fill="none" xmlns="http://www.w3.org/2000/svg">
<path d="M0 0H79V79H0V0Z" fill="#F5DE19"/>
<path d="M53.0682 61.7187C53.7413 63.086 54.7871 64.2352 56.085 65.0339C57.3829 65.8326 58.8801 66.2483 60.404 66.233C63.4793 66.233 65.4459 64.6953 65.4459 62.5652C65.4459 60.0259 63.4257 59.1174 60.04 57.6361L58.1835 56.8405C52.8228 54.558 49.2678 51.6998 49.2678 45.6563C49.2678 40.0897 53.4999 35.8491 60.1387 35.8491C62.2878 35.6939 64.4351 36.1749 66.3126 37.232C68.1901 38.2892 69.7148 39.8758 70.6965 41.7938L64.8929 45.504C64.5148 44.5529 63.8566 43.7393 63.0056 43.1709C62.1545 42.6025 61.1508 42.3062 60.1275 42.3214C59.681 42.2767 59.2301 42.3255 58.8036 42.4647C58.377 42.6039 57.9841 42.8304 57.6499 43.1298C57.3158 43.4292 57.0476 43.795 56.8626 44.2037C56.6776 44.6125 56.5797 45.0553 56.5753 45.504C56.5753 47.7301 57.955 48.633 61.1404 50.0183L62.9969 50.8139C69.3056 53.5197 72.8719 56.2762 72.8719 62.4749C72.8719 69.1588 67.6212 72.8211 60.5704 72.8211C57.8232 72.9961 55.084 72.3724 52.6834 71.0251C50.2829 69.6779 48.3235 67.6647 47.0417 65.2286L53.0682 61.7187ZM26.8431 62.362C28.0083 64.4301 29.0692 66.1794 31.6197 66.1794C34.0575 66.1794 35.598 65.2258 35.598 61.5156V36.2723H43.0211V61.6143C43.0211 69.2999 38.5069 72.7985 31.9357 72.7985C29.613 72.9254 27.3062 72.3466 25.3186 71.138C23.331 69.9294 21.7556 68.1477 20.7996 66.0271L26.8431 62.362Z" fill="black"/>
</svg>
