<svg width="59" height="79" viewBox="0 0 59 79" fill="none" xmlns="http://www.w3.org/2000/svg">
<g clip-path="url(#clip0)">
<path d="M18.8649 61.0704C18.8649 61.0704 15.849 62.8228 21.0114 63.4158C27.2656 64.1286 30.4619 64.0265 37.3541 62.723C37.3541 62.723 39.1662 63.8583 41.6966 64.8417C26.2464 71.4578 6.72935 64.4583 18.8649 61.0704Z" fill="#5382A1"/>
<path d="M16.9769 52.4366C16.9769 52.4366 13.5941 54.9386 18.7604 55.4724C25.4413 56.1611 30.7173 56.2174 39.8469 54.461C39.8469 54.461 41.1097 55.74 43.0953 56.4396C24.4148 61.8974 3.60824 56.87 16.9769 52.4366Z" fill="#5382A1"/>
<path d="M32.893 37.7911C36.7001 42.1703 31.8928 46.1112 31.8928 46.1112C31.8928 46.1112 41.5592 41.1253 37.1199 34.8815C32.9737 29.0593 29.7939 26.166 47.0073 16.1914C47.0073 16.1914 19.9881 22.9338 32.893 37.7908" fill="#E76F00"/>
<path d="M53.3273 67.4564C53.3273 67.4564 55.5592 69.2937 50.8692 70.7153C41.9511 73.4147 13.7509 74.2299 5.91696 70.8228C3.10096 69.599 8.38196 67.9003 10.043 67.5436C11.7754 67.1683 12.7656 67.2384 12.7656 67.2384C9.63377 65.0339 -7.47702 71.5667 4.07421 73.4374C35.5758 78.5418 61.4984 71.139 53.3273 67.4564Z" fill="#5382A1"/>
<path d="M20.315 43.4911C20.315 43.4911 5.97087 46.8954 15.2356 48.1313C19.1473 48.6547 26.9454 48.5364 34.2092 47.9281C40.1456 47.4281 46.1064 46.3641 46.1064 46.3641C46.1064 46.3641 44.0132 47.2598 42.4989 48.293C27.9324 52.1208 -0.207503 50.3401 7.8936 46.4246C14.7447 43.1157 20.3153 43.4911 20.3153 43.4911" fill="#5382A1"/>
<path d="M46.0473 57.8622C60.8551 50.1741 54.0085 42.786 49.2298 43.7815C48.0584 44.0249 47.5363 44.2359 47.5363 44.2359C47.5363 44.2359 47.9712 43.5555 48.8016 43.2609C58.2553 39.94 65.526 53.0553 45.7498 58.2497C45.7498 58.2499 45.979 58.0454 46.0473 57.8622Z" fill="#5382A1"/>
<path d="M37.1198 0.084701C37.1198 0.084701 45.3206 8.28152 29.3419 20.8852C16.5288 30.9958 26.4201 36.7606 29.3366 43.347C21.8573 36.6046 16.3684 30.6691 20.0509 25.1451C25.4555 17.0357 40.4285 13.1042 37.1198 0.0844727" fill="#E76F00"/>
<path d="M21.7702 78.6951C35.9836 79.6043 57.8099 78.1907 58.3268 71.4709C58.3268 71.4709 57.3332 74.0186 46.5801 76.0415C34.4487 78.3225 19.4864 78.0562 10.612 76.5943C10.6122 76.5943 12.4287 78.0967 21.7704 78.6951" fill="#5382A1"/>
</g>
<defs>
<clipPath id="clip0">
<rect width="58.5" height="79" fill="white"/>
</clipPath>
</defs>
</svg>
