<svg width="81" height="81" viewBox="0 0 81 81" fill="none" xmlns="http://www.w3.org/2000/svg">
<path d="M60.75 53.1562V22.7812H55.6875V58.2188H75.9375V53.1562H60.75Z" fill="black"/>
<path d="M45.5625 22.7812H35.4375C34.0948 22.7812 32.8072 23.3146 31.8578 24.264C30.9084 25.2134 30.375 26.5011 30.375 27.8438V53.1562C30.375 54.4989 30.9084 55.7866 31.8578 56.736C32.8072 57.6854 34.0948 58.2188 35.4375 58.2188H37.9688V63.2812C37.9688 64.6239 38.5021 65.9116 39.4515 66.861C40.4009 67.8104 41.6886 68.3438 43.0312 68.3438H48.0938V63.2812H43.0312V58.2188H45.5625C46.9052 58.2188 48.1928 57.6854 49.1422 56.736C50.0916 55.7866 50.625 54.4989 50.625 53.1562V27.8438C50.625 26.5011 50.0916 25.2134 49.1422 24.264C48.1928 23.3146 46.9052 22.7812 45.5625 22.7812ZM35.4375 53.1562V27.8438H45.5625V53.1562H35.4375Z" fill="black"/>
<path d="M20.25 58.2188H5.0625V53.1562H20.25V43.0312H10.125C8.78234 43.0312 7.49467 42.4979 6.54527 41.5485C5.59587 40.5991 5.0625 39.3114 5.0625 37.9688V27.8438C5.0625 26.5011 5.59587 25.2134 6.54527 24.264C7.49467 23.3146 8.78234 22.7812 10.125 22.7812H25.3125V27.8438H10.125V37.9688H20.25C21.5927 37.9688 22.8803 38.5021 23.8297 39.4515C24.7791 40.4009 25.3125 41.6886 25.3125 43.0312V53.1562C25.3125 54.4989 24.7791 55.7866 23.8297 56.736C22.8803 57.6854 21.5927 58.2188 20.25 58.2188Z" fill="black"/>
</svg>
